<svg width="58" height="58" viewBox="0 0 58 58" fill="none" xmlns="http://www.w3.org/2000/svg">
<path d="M28.875 0C21.2456 0.0925717 13.9548 3.16447 8.55965 8.55965C3.16447 13.9548 0.0925717 21.2456 0 28.875C0.0925717 36.5044 3.16447 43.7952 8.55965 49.1903C13.9548 54.5855 21.2456 57.6574 28.875 57.75C36.5044 57.6574 43.7952 54.5855 49.1903 49.1903C54.5855 43.7952 57.6574 36.5044 57.75 28.875C57.6574 21.2456 54.5855 13.9548 49.1903 8.55965C43.7952 3.16447 36.5044 0.0925717 28.875 0ZM45.375 30.9375H30.9375V45.375H26.8125V30.9375H12.375V26.8125H26.8125V12.375H30.9375V26.8125H45.375V30.9375Z" fill="currentColor"/>
</svg>
