<svg width="50" height="50" viewBox="0 0 50 50" fill="none" xmlns="http://www.w3.org/2000/svg">
<path d="M4.6875 25C4.6875 36.2178 13.7822 45.3125 25 45.3125C36.2178 45.3125 45.3125 36.2178 45.3125 25C45.3125 13.7822 36.2178 4.6875 25 4.6875C13.7822 4.6875 4.6875 13.7822 4.6875 25ZM25.4541 16.0781C25.5998 16.2226 25.7156 16.3944 25.7949 16.5837C25.8742 16.773 25.9155 16.9761 25.9163 17.1813C25.9171 17.3865 25.8775 17.5899 25.7997 17.7798C25.7219 17.9697 25.6074 18.1424 25.4629 18.2881L20.3535 23.4375H33.3984C33.8128 23.4375 34.2103 23.6021 34.5033 23.8951C34.7963 24.1882 34.9609 24.5856 34.9609 25C34.9609 25.4144 34.7963 25.8118 34.5033 26.1049C34.2103 26.3979 33.8128 26.5625 33.3984 26.5625H20.3535L25.4629 31.7119C25.6074 31.8577 25.7218 32.0306 25.7995 32.2206C25.8773 32.4106 25.9168 32.6141 25.9159 32.8194C25.915 33.0247 25.8737 33.2278 25.7943 33.4172C25.7149 33.6065 25.5989 33.7783 25.4531 33.9229C25.3073 34.0674 25.1345 34.1818 24.9444 34.2595C24.7544 34.3372 24.5509 34.3768 24.3456 34.3759C24.1403 34.375 23.9372 34.3336 23.7479 34.2542C23.5586 34.1748 23.3867 34.0589 23.2422 33.9131L15.4893 26.1006C15.1988 25.8079 15.0359 25.4123 15.0359 25C15.0359 24.5877 15.1988 24.1921 15.4893 23.8994L23.2422 16.0869C23.3867 15.9409 23.5587 15.8249 23.7481 15.7454C23.9376 15.6659 24.1409 15.6246 24.3463 15.6238C24.5518 15.6229 24.7554 15.6627 24.9455 15.7406C25.1355 15.8186 25.3084 15.9333 25.4541 16.0781Z" fill="currentColor"/>
</svg>
