<svg width="57" height="57" viewBox="0 0 57 57" fill="none" xmlns="http://www.w3.org/2000/svg">
<path d="M28.125 30.3375L38.2688 40.4813C38.5604 40.7729 38.9188 40.9292 39.3438 40.95C39.7688 40.9708 40.1479 40.8146 40.4813 40.4813C40.8146 40.1479 40.9813 39.7792 40.9813 39.375C40.9813 38.9708 40.8146 38.6021 40.4813 38.2688L30.3375 28.125L40.4813 17.9812C40.7729 17.6896 40.9292 17.3312 40.95 16.9062C40.9708 16.4812 40.8146 16.1021 40.4813 15.7687C40.1479 15.4354 39.7792 15.2688 39.375 15.2688C38.9708 15.2688 38.6021 15.4354 38.2688 15.7687L28.125 25.9125L17.9812 15.7687C17.6896 15.4771 17.3312 15.3208 16.9062 15.3C16.4812 15.2792 16.1021 15.4354 15.7687 15.7687C15.4354 16.1021 15.2688 16.4708 15.2688 16.875C15.2688 17.2792 15.4354 17.6479 15.7687 17.9812L25.9125 28.125L15.7687 38.2688C15.4771 38.5604 15.3208 38.9198 15.3 39.3469C15.2792 39.7698 15.4354 40.1479 15.7687 40.4813C16.1021 40.8146 16.4708 40.9813 16.875 40.9813C17.2792 40.9813 17.6479 40.8146 17.9812 40.4813L28.125 30.3375ZM28.1344 56.25C24.2448 56.25 20.5885 55.5125 17.1656 54.0375C13.7427 52.5604 10.7646 50.5563 8.23125 48.025C5.69792 45.4938 3.69271 42.5188 2.21563 39.1C0.738542 35.6813 0 32.026 0 28.1344C0 24.2427 0.738542 20.5865 2.21563 17.1656C3.69063 13.7427 5.69167 10.7646 8.21875 8.23125C10.7458 5.69792 13.7219 3.69271 17.1469 2.21563C20.5719 0.738542 24.2281 0 28.1156 0C32.0031 0 35.6594 0.738542 39.0844 2.21563C42.5073 3.69063 45.4854 5.69271 48.0187 8.22188C50.5521 10.751 52.5573 13.7271 54.0344 17.15C55.5115 20.5729 56.25 24.2281 56.25 28.1156C56.25 32.0031 55.5125 35.6594 54.0375 39.0844C52.5625 42.5094 50.5583 45.4875 48.025 48.0187C45.4917 50.55 42.5167 52.5552 39.1 54.0344C35.6833 55.5135 32.0281 56.2521 28.1344 56.25Z" fill="currentColor"/>
</svg>
