<svg width="27" height="17" viewBox="0 0 27 17" fill="currentColor" xmlns="http://www.w3.org/2000/svg">
<path d="M1.45833 17C1.04514 17 0.699028 16.864 0.42 16.592C0.14 16.3209 0 15.9847 0 15.5833C0 15.1819 0.14 14.8457 0.42 14.5747C0.699028 14.3027 1.04514 14.1667 1.45833 14.1667H24.7917C25.2049 14.1667 25.551 14.3027 25.83 14.5747C26.11 14.8457 26.25 15.1819 26.25 15.5833C26.25 15.9847 26.11 16.3209 25.83 16.592C25.551 16.864 25.2049 17 24.7917 17H1.45833ZM1.45833 9.91667C1.04514 9.91667 0.699028 9.78067 0.42 9.50867C0.14 9.23761 0 8.90139 0 8.5C0 8.09861 0.14 7.76192 0.42 7.48992C0.699028 7.21886 1.04514 7.08333 1.45833 7.08333H24.7917C25.2049 7.08333 25.551 7.21886 25.83 7.48992C26.11 7.76192 26.25 8.09861 26.25 8.5C26.25 8.90139 26.11 9.23761 25.83 9.50867C25.551 9.78067 25.2049 9.91667 24.7917 9.91667H1.45833ZM1.45833 2.83333C1.04514 2.83333 0.699028 2.69781 0.42 2.42675C0.14 2.15475 0 1.81806 0 1.41667C0 1.01528 0.14 0.678584 0.42 0.406584C0.699028 0.135528 1.04514 0 1.45833 0H24.7917C25.2049 0 25.551 0.135528 25.83 0.406584C26.11 0.678584 26.25 1.01528 26.25 1.41667C26.25 1.81806 26.11 2.15475 25.83 2.42675C25.551 2.69781 25.2049 2.83333 24.7917 2.83333H1.45833Z" fill="currentColor"/>
</svg>
