<svg width="60" height="60" viewBox="0 0 60 60" fill="currentColor" xmlns="http://www.w3.org/2000/svg">
<path fill-rule="evenodd" clip-rule="evenodd" d="M55 30C55 43.8075 43.8075 55 30 55C16.1925 55 5 43.8075 5 30C5 16.1925 16.1925 5 30 5C43.8075 5 55 16.1925 55 30ZM20 32.5C20.663 32.5 21.2989 32.2366 21.7678 31.7678C22.2366 31.2989 22.5 30.663 22.5 30C22.5 29.337 22.2366 28.7011 21.7678 28.2322C21.2989 27.7634 20.663 27.5 20 27.5C19.337 27.5 18.7011 27.7634 18.2322 28.2322C17.7634 28.7011 17.5 29.337 17.5 30C17.5 30.663 17.7634 31.2989 18.2322 31.7678C18.7011 32.2366 19.337 32.5 20 32.5ZM30 32.5C30.663 32.5 31.2989 32.2366 31.7678 31.7678C32.2366 31.2989 32.5 30.663 32.5 30C32.5 29.337 32.2366 28.7011 31.7678 28.2322C31.2989 27.7634 30.663 27.5 30 27.5C29.337 27.5 28.7011 27.7634 28.2322 28.2322C27.7634 28.7011 27.5 29.337 27.5 30C27.5 30.663 27.7634 31.2989 28.2322 31.7678C28.7011 32.2366 29.337 32.5 30 32.5ZM40 32.5C40.663 32.5 41.2989 32.2366 41.7678 31.7678C42.2366 31.2989 42.5 30.663 42.5 30C42.5 29.337 42.2366 28.7011 41.7678 28.2322C41.2989 27.7634 40.663 27.5 40 27.5C39.337 27.5 38.7011 27.7634 38.2322 28.2322C37.7634 28.7011 37.5 29.337 37.5 30C37.5 30.663 37.7634 31.2989 38.2322 31.7678C38.7011 32.2366 39.337 32.5 40 32.5Z" fill="currentColor"/>
</svg>
